<svg xmlns="http://www.w3.org/2000/svg" width="48" height="48" viewBox="0 0 48 48" fill="none">
  <defs>
    <linearGradient id="g" x1="8" y1="6" x2="40" y2="42" gradientUnits="userSpaceOnUse">
      <stop offset="0" stop-color="#ffb347"/>
      <stop offset="0.55" stop-color="#f97316"/>
      <stop offset="1" stop-color="#7c2d12"/>
    </linearGradient>
    <filter id="s" x="0" y="0" width="48" height="48" filterUnits="userSpaceOnUse">
      <feDropShadow dx="0" dy="2" stdDeviation="2.2" flood-color="#f97316" flood-opacity="0.35"/>
    </filter>
  </defs>
  <rect width="48" height="48" rx="14" fill="#050505"/>
  <path filter="url(#s)" d="M26.8 4.5c-.8.2-1.5.7-1.9 1.4l-8.7 14.8H7.8c-1.6 0-2.6 1.7-1.8 3l6.5 11.5-3.9 6.8c-.9 1.6.3 3.6 2.1 3.6h12.8c.9 0 1.8-.5 2.2-1.3l12.7-22.7c.7-1.3-.2-2.9-1.7-2.9H28l4.8-8.5c.8-1.4-.1-3.1-1.7-3.1h-4.3z" fill="url(#g)"/>
  <path d="M18.6 16.7h7.4l-3.1 5.5h6.5l-8.8 15.7 1.4-9H15l3.6-12.2z" fill="#fff7ed" fill-opacity="0.9"/>
</svg>
